# xmcd
#
# Track frame offsets:
#	150
#	17700
#	33587
#	50312
#	66015
#	81980
#	100203
#	118285
#	136114
#	148358
#	166062
#	182931
#	195827
#	215165
#	230068
#	249259
#	263341
#	274817
#	294869
#	311445
#	328565
#
# Disc length: 4535 seconds
#
# Revision: 1
# Processed by: cddbd v1.5.1PL2 Copyright (c) Steve Scherf et al.
# Submitted via: audiograbber 1.83.01
#
DISCID=2f11b515
DTITLE=Rony Motta - Ontem e Hoje
DYEAR=2006
DGENRE=Country
TTITLE0=Já Sou Quase Um Homem (Part. Zezé Di Camargo and Luciano)
TTITLE1=Ser Feliz
TTITLE2=A Resposta Está no Ar (Part. Zezé di Camargo and Luciano)
TTITLE3=Inventei Você Pra Mim
TTITLE4=Eterno Amigo
TTITLE5=Abrindo o Coração
TTITLE6=Couro de Boi (Part. João Paulo and Daniel e Eli Corrêa)
TTITLE7=Queira-me
TTITLE8=Moreninha
TTITLE9=Necessito Uma Companheira
TTITLE10=Um Par Ideal (Part. Antônia Regineide)
TTITLE11=Não Me Abandone
TTITLE12=Como Fui Apaixonar-me Por Você
TTITLE13=Sexta-Feira Já Começou (Part. Jonatan Motta)
TTITLE14=Pot Pourri
TTITLE15=O Filho do Cientista
TTITLE16=Amanheceu, Peguei a Viola
TTITLE17=Morrendo de Paixão
TTITLE18=TÔ Facim
TTITLE19=Paixão Sem Limite
TTITLE20=Carnaval Sertanejo
EXTD=
EXTT0=
EXTT1=
EXTT2=
EXTT3=
EXTT4=
EXTT5=
EXTT6=
EXTT7=
EXTT8=
EXTT9=
EXTT10=
EXTT11=
EXTT12=
EXTT13=
EXTT14=
EXTT15=
EXTT16=
EXTT17=
EXTT18=
EXTT19=
EXTT20=
PLAYORDER=
